<svg width="170" height="20" viewBox="0 0 170 20" fill="none" xmlns="http://www.w3.org/2000/svg">
<path d="M135.835 12.0376L133.979 10.0469L147.248 0.0251122L147.265 0.0125561L147.281 0L146.616 17.4632L143.258 20L143.8 6.02192L135.835 12.0376Z" fill="black"/>
<path d="M33.0151 1.61578C34.5398 1.01535 36.1599 0.729431 37.907 0.729431C39.6541 0.729431 41.2742 1.01535 42.7989 1.61578C44.3554 2.24481 45.6896 3.04538 46.8649 4.07469C48.0085 5.10401 48.9297 6.33346 49.5968 7.73447C50.2639 9.10688 50.6133 10.5937 50.6133 12.1662V19.7717L46.3567 15.969V12.1662C46.3567 11.1083 46.1343 10.1076 45.7214 9.19266C45.2766 8.27772 44.6731 7.44855 43.879 6.76234C43.0848 6.07613 42.1954 5.53288 41.1789 5.1326C40.1306 4.73231 39.0506 4.53217 37.907 4.53217C36.7634 4.53217 35.6834 4.73231 34.6351 5.1326C33.6186 5.53288 32.7292 6.07613 31.935 6.79093C31.1726 7.47714 30.5373 8.30631 30.0926 9.22125C29.6797 10.1362 29.4573 11.1369 29.4573 12.1662V15.969L25.2007 19.7717V12.1662C25.2007 10.5937 25.5501 9.13548 26.2172 7.73447C26.8843 6.36205 27.8055 5.1326 28.949 4.10329C30.1244 3.04538 31.4585 2.24481 33.0151 1.61578Z" fill="black"/>
<path d="M170 0.638977L159.411 10.1696L170 19.7003H165.023L155.864 11.5039L154.382 10.1935L155.864 8.85917L165.023 0.638977H170Z" fill="black"/>
<path d="M123.622 0.4245H127.143V19.4858H123.622V11.5515H113.033V19.4858H109.513V11.5515L113.033 8.35878H123.622V0.4245Z" fill="black"/>
<path d="M101.836 2.49746C103.212 3.76027 103.901 5.26135 103.901 7.00069C103.901 8.74004 103.239 10.2649 101.836 11.5039C100.459 12.7429 98.7915 13.3624 96.8591 13.3624H89.7912V19.7003H86.2705V10.1696H89.7912H96.8591C97.8121 10.1696 98.6327 9.85989 99.3209 9.2404C100.009 8.62091 100.38 7.88228 100.38 7.00069C100.38 6.14293 100.036 5.38048 99.3209 4.76099C98.6327 4.1415 97.8121 3.83175 96.8591 3.83175H89.7912L86.2705 0.638977H96.8591C98.7915 0.638977 100.459 1.25847 101.836 2.49746Z" fill="black"/>
<path d="M65.2521 13.3624L63.5049 16.5075L61.7049 19.7003H57.7871L68.3757 0.638977L75.4436 13.3624H71.4729L68.3757 7.76315L65.2521 13.3624ZM77.1907 16.5314L78.9643 19.7003H75.02L73.2729 16.5314H77.1907Z" fill="black"/>
<path d="M12.7857 9.90743L10.5356 12.5045V12.4807L4.52662 19.4381H0L8.31204 9.90743L0 0.37677H4.52662L10.5356 7.33415L16.5711 0.37677H21.0448L12.7857 9.90743ZM10.5356 12.4807V12.5045L4.52662 19.4381L10.5356 12.4807Z" fill="black"/>
</svg>
